<?xml version="1.0" standalone="no"?>
<!DOCTYPE svg PUBLIC "-//W3C//DTD SVG 20010904//EN"
 "http://www.w3.org/TR/2001/REC-SVG-20010904/DTD/svg10.dtd">
<svg version="1.0" xmlns="http://www.w3.org/2000/svg"
 width="790.000000pt" height="218.000000pt" viewBox="0 0 790.000000 218.000000"
 preserveAspectRatio="xMidYMid meet">

<g transform="translate(0.000000,218.000000) scale(0.100000,-0.100000)"
fill="#000000" stroke="none">
<path d="M2691 1735 c-34 -39 -39 -71 -16 -115 33 -64 114 -78 170 -29 30 27
35 37 35 76 0 36 -6 50 -29 74 -25 24 -38 29 -79 29 -45 0 -53 -4 -81 -35z"/>
<path d="M1520 1115 l0 -636 83 3 82 3 5 285 c5 312 7 322 69 392 45 52 119
80 211 81 113 1 178 -33 223 -118 21 -38 22 -55 25 -343 l3 -303 80 3 80 3 -1
305 c0 183 -5 321 -11 345 -29 107 -88 177 -189 224 -50 24 -66 26 -175 26
-134 0 -186 -16 -272 -82 l-43 -33 -2 238 -3 237 -82 3 -83 3 0 -636z"/>
<path d="M3170 1115 l0 -635 80 0 80 0 0 635 0 635 -80 0 -80 0 0 -635z"/>
<path d="M817 1380 c-200 -50 -346 -236 -347 -441 -1 -220 135 -403 339 -455
89 -22 245 -15 322 15 59 22 133 80 169 132 l21 29 -62 39 -61 39 -31 -35
c-17 -19 -53 -46 -81 -61 -44 -23 -63 -27 -141 -27 -78 0 -97 4 -141 27 -115
61 -170 166 -162 311 10 182 124 292 303 292 98 -1 169 -29 219 -86 l33 -39
62 40 62 40 -21 29 c-36 52 -110 110 -169 132 -63 25 -247 36 -314 19z"/>
<path d="M2697 1384 c-4 -4 -7 -209 -7 -456 l0 -448 80 0 80 0 -2 453 -3 452
-70 3 c-39 2 -74 0 -78 -4z"/>
<path d="M3646 1383 c-3 -4 -6 -137 -6 -297 0 -384 12 -435 125 -534 71 -62
151 -85 278 -80 120 4 186 29 255 96 l42 42 0 -65 0 -65 74 0 c58 0 75 3 80
16 3 9 6 211 6 450 l0 434 -23 5 c-13 4 -50 5 -82 3 l-60 -4 -5 -284 c-5 -309
-7 -320 -67 -398 -63 -84 -235 -115 -338 -61 -62 31 -102 92 -115 174 -5 33
-10 173 -10 311 0 192 -3 253 -12 257 -19 6 -135 6 -142 0z"/>
<path d="M4814 1381 c-2 -2 -4 -206 -4 -453 l0 -448 79 0 79 0 4 278 c3 274 3
278 29 332 49 105 126 154 239 154 80 0 127 -15 167 -54 66 -65 68 -74 71
-407 l3 -302 80 -3 c45 -2 83 -1 85 1 2 2 4 124 4 271 0 213 3 277 16 319 20
67 80 134 141 157 91 35 230 16 281 -39 12 -12 31 -45 44 -72 21 -48 23 -64
26 -342 l4 -293 80 0 79 0 -3 323 c-4 290 -6 327 -23 370 -34 83 -84 138 -159
177 -59 30 -78 35 -160 38 -149 7 -255 -30 -340 -117 l-39 -40 -21 28 c-62 83
-146 123 -272 129 -134 6 -235 -28 -304 -103 l-25 -27 -5 64 -5 63 -73 0 c-41
0 -76 -2 -78 -4z"/>
<path d="M6876 1379 c-115 -28 -234 -130 -289 -247 -30 -64 -32 -72 -32 -197
0 -152 18 -211 89 -298 90 -110 196 -158 366 -165 105 -4 122 -2 195 23 74 25
168 83 179 110 2 7 -14 34 -37 60 l-42 47 -52 -35 c-79 -53 -141 -70 -237 -65
-68 3 -91 10 -144 38 -35 18 -79 51 -97 73 -31 36 -65 111 -65 144 0 11 70 13
370 13 l370 0 0 58 c0 177 -95 334 -248 409 -71 36 -81 38 -181 40 -58 1 -123
-2 -145 -8z m236 -143 c61 -22 114 -72 147 -138 17 -34 31 -72 31 -85 l0 -23
-285 0 c-225 0 -287 3 -291 13 -7 18 22 95 53 140 26 38 74 73 128 94 41 16
171 15 217 -1z"/>
</g>
</svg>
